Coordinates
version=1
nRows=12
nColumns=42
inDegrees=yes

Units are S.I. units (second, meters, Newtons, ...)
If the header above contains a line with 'inDegrees', this indicates whether rotational values are in degrees (yes) or radians (no).

endheader
time	pelvis_tilt	pelvis_list	pelvis_rotation	pelvis_tx	pelvis_ty	pelvis_tz	hip_flexion_r	hip_adduction_r	hip_rotation_r	knee_angle_r	knee_angle_r_beta	ankle_angle_r	subtalar_angle_r	mtp_angle_r	hip_flexion_l	hip_adduction_l	hip_rotation_l	knee_angle_l	knee_angle_l_beta	ankle_angle_l	subtalar_angle_l	mtp_angle_l	lumbar_extension	lumbar_bending	lumbar_rotation	sh_tx_r	sh_ty_r	sh_tz_r	sh_plane_elev_r	sh_elev_r	sh_axial_rot_r	elbow_flex_r	pro_sup_r	sh_tx_l	sh_ty_l	sh_tz_l	sh_plane_elev_l	sh_elev_l	sh_axial_rot_l	elbow_flex_l	pro_sup_l
      1.49152540	     -3.86891107	     -0.25086911	      1.60351795	      0.32162340	      0.93482765	     -0.05667953	      0.36363513	     -5.34409697	     -0.89213527	      0.79545198	      0.01388326	      1.91069649	      1.46606257	     -7.49999989	      0.64822203	     -0.94784086	     -1.36156914	      0.45167035	      0.00788313	      8.85197209	     -2.45614671	     -7.49999989	     -0.33800972	     -8.39949030	      3.25413303	      0.00030549	     -0.01128818	     -0.00769311	    -23.28328246	    117.40463272	    -10.04295402	     15.37435696	     10.67328910	      0.01363540	      0.00818857	     -0.00741810	     63.07997021	     12.14281695	     -6.33652948	      9.18738557	     35.97359641
      1.50847460	     -3.90111832	     -0.26487054	      1.60144948	      0.32157585	      0.93487121	     -0.05675843	      0.39716228	     -5.33483377	     -0.94048547	      0.79222923	      0.01382701	      1.93286402	      1.65257319	     -7.49999989	      0.68799749	     -0.97362133	     -1.27112793	      0.44657143	      0.00779414	      8.83448197	     -2.47576342	     -7.49999989	     -0.34612015	     -8.36420449	      2.57480284	     -0.00041566	     -0.01148167	     -0.00769742	    -22.40641007	    118.78698745	     -9.84006123	     15.88985908	      8.46407584	      0.01106583	      0.00786660	     -0.00730672	     63.43916348	     12.22083667	     -6.19196493	      8.91740469	     34.55205461
      1.52542370	     -4.01691972	     -0.26824912	      1.54507366	      0.32161304	      0.93459896	     -0.05666851	      0.53514647	     -5.32346270	     -0.79744495	      0.79568880	      0.01388739	      1.82904811	      1.53312454	     -7.49999989	      0.80373618	     -0.98140741	     -1.39668563	      0.44454504	      0.00775877	      8.91998999	     -2.23994124	     -7.49999989	     -0.08905001	     -8.43912334	      2.50139013	     -0.00052663	     -0.01190723	     -0.00773511	    -22.48865631	    120.00928981	    -10.53599950	     16.64727677	      9.97436359	      0.01108621	      0.00769533	     -0.00731056	     63.32320002	     12.12810639	     -5.98925303	      8.85588869	     35.07021075
      1.54237290	     -4.03517318	     -0.25871039	      1.53063123	      0.32163832	      0.93474582	     -0.05676552	      0.53211718	     -5.32531811	     -0.99037691	      0.80401166	      0.01403265	      1.98951560	      1.87763307	     -7.49999988	      0.81389542	     -0.97316475	     -1.21915610	      0.43098450	      0.00752210	      8.83639463	     -2.44396420	     -7.49999988	      0.01839050	     -8.35009241	      2.22952653	     -0.00011258	     -0.01185241	     -0.00767097	    -22.75669873	    121.54842219	    -10.87106728	     17.68249418	      9.69744530	      0.01080959	      0.00713705	     -0.00726879	     63.09005174	     12.10431021	     -5.68878320	      9.17327551	     35.17431627
      1.55932200	     -4.13198186	     -0.24207199	      1.42717705	      0.32171711	      0.93445351	     -0.05664936	      0.64920389	     -5.32670257	     -0.87142217	      0.82744251	      0.01444160	      1.97287461	      1.81044927	     -7.49999988	      0.89307252	     -0.94600702	     -1.20977863	      0.42369536	      0.00739488	      8.86195471	     -2.52375841	     -7.49999988	      0.27306919	     -8.29560106	      2.24888190	     -0.00068436	     -0.01206243	     -0.00762515	    -22.84837059	    123.28252879	    -11.90648696	     17.05467507	     10.07061378	      0.01115789	      0.00673712	     -0.00724864	     62.73480286	     11.99345471	     -5.64805333	      9.57090401	     35.38356389
      1.57627120	     -4.14975415	     -0.21559268	      1.33068559	      0.32185420	      0.93460035	     -0.05667301	      0.65875997	     -5.35375339	     -0.90860818	      0.84617724	      0.01476858	      2.06014500	      1.88181674	     -7.49999988	      0.89641309	     -0.91539638	     -1.31281221	      0.43120208	      0.00752590	      8.94220932	     -2.42760421	     -7.49999988	      0.37941498	     -8.18398028	      1.95664423	     -0.00173595	     -0.01224577	     -0.00755872	    -22.09800491	    125.01993858	    -11.67214124	     16.00194142	      9.12482469	      0.00996105	      0.00652109	     -0.00713352	     62.91374003	     11.99687454	     -5.64422492	      9.54710829	     34.80747575
      1.59322030	     -4.26584131	     -0.16949594	      1.24006913	      0.32197569	      0.93430892	     -0.05658458	      0.78407723	     -5.39551483	     -0.84391699	      0.86654281	      0.01512403	      2.02878980	      1.74672451	     -7.49999988	      1.00394808	     -0.86064070	     -1.28216908	      0.44106826	      0.00769809	      8.81811461	     -2.56653975	     -7.49999988	      0.68955707	     -8.08294388	      2.01022863	     -0.00171614	     -0.01197158	     -0.00746372	    -22.08638690	    126.43989993	    -13.25948385	     15.47889956	     10.46026382	      0.01071265	      0.00624504	     -0.00710797	     61.68897732	     11.79422978	     -5.74454889	     10.17323135	     35.61586849
      1.61016950	     -4.30815211	     -0.14531101	      1.23824004	      0.32201309	      0.93437788	     -0.05664625	      0.81026252	     -5.42885536	     -0.93962271	      0.87175603	      0.01521501	      1.97832256	      1.81889779	     -7.49999988	      1.04311662	     -0.82401847	     -1.23707814	      0.44435250	      0.00775541	      8.79308382	     -2.57712918	     -7.49999988	      0.75439234	     -8.08314691	      1.26002100	     -0.00176637	     -0.01222429	     -0.00749660	    -20.36355547	    127.51440838	    -12.08698774	     13.90409104	      8.79483152	      0.00827603	      0.00644873	     -0.00705452	     61.48450940	     11.75839475	     -6.00212435	     10.08285336	     34.04068462
      1.62711860	     -4.37953957	     -0.10529865	      1.28528073	      0.32208774	      0.93415522	     -0.05658205	      0.85848407	     -5.47186940	     -0.98127614	      0.86757739	      0.01514208	      1.97274285	      1.75178181	     -7.49999988	      1.11995838	     -0.76588294	     -1.22423759	      0.44560045	      0.00777720	      8.79434583	     -2.57713017	     -7.49999988	      0.91436451	     -8.13355940	      1.45176427	     -0.00165894	     -0.01301423	     -0.00754442	    -20.31565120	    128.68723050	    -13.24530648	     13.01013331	      9.45586559	      0.00933998	      0.00671064	     -0.00709797	     60.52484772	     11.63983410	     -5.90743563	     10.70372534	     34.76161554
      1.64406780	     -4.42063015	     -0.08003074	      1.35255178	      0.32218042	      0.93426970	     -0.05665349	      0.87020729	     -5.49706665	     -1.01246220	      0.87131891	      0.01520738	      1.97472472	      1.66901595	     -7.49999988	      1.15286275	     -0.70997688	     -1.16282135	      0.45035668	      0.00786021	      8.82358912	     -2.57629252	     -7.49999988	      0.96205517	     -8.22878890	      1.27866766	     -0.00127684	     -0.01404295	     -0.00767447	    -19.73150468	    129.75691140	    -13.61535219	     12.48388225	      9.25430966	      0.00898852	      0.00701494	     -0.00714248	     59.84345741	     11.60500781	     -5.79541047	     10.87477418	     34.94832808
      1.66101700	     -4.51309463	     -0.06982716	      1.46470507	      0.32222642	      0.93398162	     -0.05663195	      0.92561746	     -5.50515279	     -1.09630302	      0.86470960	      0.01509203	      1.96943675	      1.61865592	     -7.49999988	      1.25160272	     -0.67355324	     -1.10201021	      0.45636909	      0.00796514	      8.83517640	     -2.63028375	     -7.49999988	      1.12370799	     -8.20565059	      1.03153582	     -0.00079984	     -0.01412628	     -0.00768542	    -18.89304132	    131.13556808	    -12.74217320	     11.63283178	      8.61427445	      0.00838661	      0.00699421	     -0.00712571	     59.25551583	     11.53203580	     -5.94909986	     11.04002086	     34.61067126
      1.67796610	     -4.59690372	     -0.02167761	      1.62650030	      0.32230968	      0.93407808	     -0.05666310	      0.97968323	     -5.56642635	     -1.24296229	      0.83570626	      0.01458583	      1.82658607	      1.58640166	     -7.49999988	      1.38985194	     -0.60356345	     -1.09300823	      0.45828532	      0.00799859	      8.78819132	     -2.61396251	     -7.49999988	      1.27258058	     -8.25592372	      1.13996263	      0.00051310	     -0.01343158	     -0.00759855	    -19.54925945	    132.30243510	    -12.94216052	     11.50151857	      9.31387200	      0.00930000	      0.00718359	     -0.00719910	     58.73985918	     11.43616572	     -6.10062768	     11.16689311	     35.08613264
